#!OML:ASF H:\Dans Jumps\Project 1\Capture day 1\Session 1\subject.ASF
:FULLY-SPECIFIED
:DEGREES
233
root 0.321574 17.5133 -12.543 10.6656 1.39175 -0.00807281
lowerback 12.8997 0.778829 -1.70873
upperback 6.18179 0.88428 2.44244
thorax -0.808147 0.375513 3.39157
lowerneck -12.0051 -0.435268 -2.49163
upperneck 24.9173 0.0663822 -0.367548
head 9.88209 -0.233852 0.305045
rclavicle 1.98785e-015 1.27222e-014
rhumerus -2.35468 -0.349019 -79.5616
rradius 35.4091
rwrist 22.5733
rhand -23.1565 -22.8458
rfingers 7.12502
rthumb 3.29193 -52.8001
lclavicle 1.98785e-015 1.27222e-014
lhumerus 1.8116 -15.17 82.4959
lradius 39.9636
lwrist 31.6274
lhand -29.3695 -14.1153
lfingers 7.12502
lthumb -2.70858 15.8472
rfemur -30.4251 -5.62814 18.472
rtibia 50.863
rfoot -9.01769 -8.98965
rtoes -8.55483
lfemur -30.9067 4.3666 -19.6502
ltibia 50.196
lfoot -4.93242 5.49088
ltoes -13.9061
234
root 0.324121 17.7431 -12.4419 10.3573 1.3147 0.0256024
lowerback 12.4666 0.798261 -1.73739
upperback 6.22746 0.90855 2.40696
thorax -0.529143 0.383361 3.37022
lowerneck -11.2015 -0.447072 -2.46882
upperneck 25.0207 0.0158509 -0.34704
head 9.76507 -0.251688 0.303298
rclavicle -5.1684e-015 -7.15625e-015
rhumerus -1.42135 0.0801799 -79.8847
rradius 35.8941
rwrist 22.1722
rhand -23.4455 -22.6664
rfingers 7.12502
rthumb 3.01286 -52.6249
lclavicle -5.1684e-015 -7.15625e-015
lhumerus 2.91787 -15.194 82.5638
lradius 40.4311
lwrist 32.3422
lhand -29.248 -14.4148
lfingers 7.12502
lthumb -2.59119 15.5492
rfemur -29.6561 -5.69072 18.2676
rtibia 49.818
rfoot -5.42767 -8.19568
rtoes -7.1809
lfemur -30.1638 4.61642 -19.5849
ltibia 49.1097
lfoot -1.19518 4.08837
ltoes -13.17
235
root 0.327336 17.9711 -12.3436 10.0798 1.23964 0.0594355
lowerback 12.088 0.810225 -1.73703
upperback 6.26119 0.925849 2.34991
thorax -0.290527 0.38932 3.31087
lowerneck -10.4568 -0.45835 -2.45671
upperneck 25.1129 -0.0411256 -0.280828
head 9.65549 -0.268736 0.318671
rclavicle -3.57812e-015 7.95139e-015
rhumerus -0.585704 0.474848 -80.205
rradius 36.3382
rwrist 21.8087
rhand -23.7244 -22.5032
rfingers 7.12502
rthumb 2.74354 -52.4653
lclavicle -3.57812e-015 7.95139e-015
lhumerus 3.94999 -15.229 82.6027
lradius 40.8395
lwrist 32.585
lhand -29.1984 -14.7118
lfingers 7.12502
lthumb -2.54333 15.2528
rfemur -29.052 -5.74144 18.0648
rtibia 48.8851
rfoot -1.62608 -7.69789
rtoes -5.21186
lfemur -29.552 4.81137 -19.5142
ltibia 48.0935
lfoot 2.73552 2.94308
ltoes -11.8991
236
root 0.331157 18.1951 -12.248 9.83739 1.16271 0.0817492
lowerback 11.7447 0.817221 -1.71152
upperback 6.28834 0.938981 2.28118
thorax -0.0767246 0.394407 3.22573
lowerneck -9.78713 -0.468671 -2.45108
upperneck 25.1999 -0.101351 -0.180873
head 9.55872 -0.284695 0.346544
rclavicle 1.19271e-015 1.55052e-014
rhumerus 0.2 0.840976 -80.5105
rradius 36.6911
rwrist 21.5626
rhand -23.9353 -22.3264
rfingers 7.12502
rthumb 2.53981 -52.2911
lclavicle 1.19271e-015 1.55052e-014
lhumerus 4.90892 -15.2622 82.6198
lradius 41.1927
lwrist 32.3248
lhand -29.2147 -15.0159
lfingers 7.12502
lthumb -2.55903 14.9485
rfemur -28.6113 -5.77142 17.8808
rtibia 48.0689
rfoot 2.25465 -7.5017
rtoes -2.32604
lfemur -29.066 4.94745 -19.4259
ltibia 47.1468
lfoot 6.75591 2.10083
ltoes -9.74224
237
root 0.335321 18.4126 -12.1547 9.6291 1.0912 0.0876978
lowerback 11.4229 0.818108 -1.67084
upperback 6.31258 0.945477 2.21334
thorax 0.12332 0.396854 3.13389
lowerneck -9.20868 -0.478034 -2.44428
upperneck 25.2973 -0.158764 -0.0751442
head 9.48327 -0.299244 0.376525
rclavicle 3.97569e-015 1.47101e-014
rhumerus 0.961054 1.20875 -80.7819
rradius 36.9338
rwrist 21.444
rhand -24.0387 -22.1524
rfingers 7.12502
rthumb 2.44001 -52.1182
lclavicle 3.97569e-015 1.47101e-014
lhumerus 5.79346 -15.2805 82.6272
lradius 41.5038
lwrist 31.6324
lhand -29.2945 -15.2858
lfingers 7.12502
lthumb -2.63613 14.6777
rfemur -28.3246 -5.7859 17.7287
rtibia 47.3753
rfoot 6.08427 -7.60228
rtoes 1.7232
lfemur -28.6937 5.01982 -19.3163
ltibia 46.2648
lfoot 10.7177 1.59975
ltoes -6.69643
238
root 0.339606 18.6209 -12.0636 9.44859 1.02571 0.071822
lowerback 11.1194 0.813421 -1.62153
upperback 6.33376 0.945385 2.15741
thorax 0.310924 0.396354 3.05045
lowerneck -8.71814 -0.485232 -2.43705
upperneck 25.4138 -0.207024 0.0176833
head 9.43146 -0.311455 0.402957
rclavicle 4.57205e-015 1.27222e-014
rhumerus 1.71019 1.5915 -81.0064
rradius 37.0631
rwrist 21.4382
rhand -24.0586 -21.9307
rfingers 7.12502
rthumb 2.42079 -51.8967
lclavicle 4.57205e-015 1.27222e-014
lhumerus 6.581 -15.262 82.6454
lradius 41.8099
lwrist 30.6508
lhand -29.4016 -15.5031
lfingers 7.12502
lthumb -2.73957 14.459
rfemur -28.1715 -5.79469 17.6219
rtibia 46.8062
rfoot 9.67214 -7.95624
rtoes 6.7178
lfemur -28.4148 5.03601 -19.1829
ltibia 45.445
lfoot 14.4027 1.48653
ltoes -3.15039
239
root 0.343769 18.8179 -11.9743 9.28832 0.966031 0.0400415
lowerback 10.8349 0.800056 -1.5851
upperback 6.34917 0.932659 2.12434
thorax 0.482839 0.389201 2.99941
lowerneck -8.28681 -0.486388 -2.44864
upperneck 25.5403 -0.236566 0.0904377
head 9.39444 -0.319246 0.427643
rclavicle -2.18663e-015 -7.15625e-015
rhumerus 2.44486 2.0234 -81.1721
rradius 37.0989
rwrist 21.4952
rhand -23.9534 -21.7143
rfingers 7.12502
rthumb 2.52236 -51.6792
lclavicle -2.18663e-015 -7.15625e-015
lhumerus 7.25962 -15.1844 82.6912
lradius 42.135
lwrist 29.5829
lhand -29.5137 -15.6311
lfingers 7.12502
lthumb -2.84782 14.3297
rfemur -28.1288 -5.811 17.5604
rtibia 46.363
rfoot 12.7576 -8.45741
rtoes 11.8387
lfemur -28.2073 5.00743 -19.0379
ltibia 44.6873
lfoot 17.5178 1.70998
ltoes 0.316091
240
root 0.347665 19.0017 -11.8867 9.13222 0.901209 -0.00472127
lowerback 10.5819 0.780366 -1.57221
upperback 6.3582 0.9094 2.11674
thorax 0.631275 0.376122 2.98894
lowerneck -7.90987 -0.481529 -2.47709
upperneck 25.6872 -0.244815 0.129478
head 9.37498 -0.322665 0.44578
rclavicle -8.54774e-015 -9.93923e-015
rhumerus 3.15451 2.52346 -81.2786
rradius 37.0666
rwrist 21.5498
rhand -23.7523 -21.5234
rfingers 7.12502
rthumb 2.71655 -51.4858
lclavicle -8.54774e-015 -9.93923e-015
lhumerus 7.81582 -15.0505 82.7663
lradius 42.5123
lwrist 28.6396
lhand -29.6008 -15.7025
lfingers 7.12502
lthumb -2.9319 14.2571
rfemur -28.1648 -5.82482 17.5396
rtibia 46.0416
rfoot 15.1165 -8.9545
rtoes 16.3196
lfemur -28.0427 4.95103 -18.8876
ltibia 43.9938
lfoot 19.8483 2.17614
ltoes 3.21199
241
root 0.351125 19.1715 -11.8012 8.98274 0.848224 -0.04844
lowerback 10.3682 0.751725 -1.58396
upperback 6.35002 0.872192 2.12692
thorax 0.740955 0.355759 3.01166
lowerneck -7.56176 -0.469392 -2.52025
upperneck 25.8459 -0.233996 0.145343
head 9.36505 -0.321286 0.460375
rclavicle -2.5842e-015 7.95139e-016
rhumerus 3.81046 3.07983 -81.3342
rradius 37.0014
rwrist 21.5684
rhand -23.4828 -21.3694
rfingers 7.12502
rthumb 2.97688 -51.3284
lclavicle -2.5842e-015 7.95139e-016
lhumerus 8.2506 -14.893 82.864
lradius 42.955
lwrist 27.9931
lhand -29.6387 -15.7397
lfingers 7.12502
lthumb -2.96853 14.2194
rfemur -28.2699 -5.84583 17.5448
rtibia 45.8336
rfoot 16.6863 -9.29175
rtoes 19.6467
lfemur -27.9242 4.85964 -18.7472
ltibia 43.3635
lfoot 21.3049 2.75129
ltoes 5.11995
242
root 0.353944 19.3271 -11.718 8.8339 0.800609 -0.0927293
lowerback 10.2042 0.717779 -1.61738
upperback 6.32707 0.82605 2.14995
thorax 0.808589 0.330758 3.06011
lowerneck -7.25965 -0.452088 -2.5661
upperneck 26.0274 -0.208574 0.137835
head 9.37188 -0.316149 0.468806
rclavicle -5.96354e-015 3.18055e-015
rhumerus 4.40997 3.67106 -81.3552
rradius 36.9208
rwrist 21.5471
rhand -23.1813 -21.2337
rfingers 7.12502
rthumb 3.26802 -51.1884
lclavicle -5.96354e-015 3.18055e-015
lhumerus 8.5841 -14.7372 82.9653
lradius 43.4721
lwrist 27.7497
lhand -29.6279 -15.7313
lfingers 7.12502
lthumb -2.95809 14.2279
rfemur -28.4284 -5.85104 17.5716
rtibia 45.7182
rfoot 17.5241 -9.40359
rtoes 21.72
lfemur -27.8442 4.73876 -18.6113
ltibia 42.7876
lfoot 22.0072 3.33197
ltoes 6.20561
243
root 0.356255 19.4691 -11.637 8.68416 0.769795 -0.130745
lowerback 10.092 0.676602 -1.65906
upperback 6.28835 0.76953 2.17353
thorax 0.832375 0.301053 3.11409
lowerneck -6.98169 -0.430516 -2.61285
upperneck 26.2115 -0.175483 0.125646
head 9.38419 -0.308177 0.476473
rclavicle 5.96354e-016 -7.15625e-015
rhumerus 4.92764 4.28108 -81.3583
rradius 36.8544
rwrist 21.4833
rhand -22.8913 -21.1296
rfingers 7.12502
rthumb 3.54806 -51.0798
lclavicle 5.96354e-016 -7.15625e-015
lhumerus 8.82774 -14.6044 83.059
lradius 44.0551
lwrist 27.9082
lhand -29.5545 -15.7014
lfingers 7.12502
lthumb -2.88725 14.2588
rfemur -28.6307 -5.83556 17.6073
rtibia 45.667
rfoot 17.8223 -9.30474
rtoes 22.7327
lfemur -27.8035 4.57521 -18.4826
ltibia 42.249
lfoot 22.1762 3.84348
ltoes 6.70515
244
root 0.358384 19.5983 -11.558 8.5268 0.754439 -0.16886
lowerback 10.0299 0.629247 -1.69155
upperback 6.24631 0.705258 2.19075
thorax 0.826184 0.26827 3.15647
lowerneck -6.75229 -0.403984 -2.64546
upperneck 26.3982 -0.136871 0.114495
head 9.40658 -0.29637 0.48253
rclavicle -4.96962e-015 -1.31198e-014
rhumerus 5.38136 4.87794 -81.3641
rradius 36.7972
rwrist 21.4125
rhand -22.6543 -21.0382
rfingers 7.12502
rthumb 3.7769 -50.9845
lclavicle -4.96962e-015 -1.31198e-014
lhumerus 9.02038 -14.5044 83.1257
lradius 44.6797
lwrist 28.3969
lhand -29.419 -15.6534
lfingers 7.12502
lthumb -2.75636 14.3085
rfemur -28.8567 -5.79453 17.6524
rtibia 45.6414
rfoot 17.7963 -9.05364
rtoes 23.0396
lfemur -27.7913 4.375 -18.3535
ltibia 41.7224
lfoot 22.0457 4.23498
ltoes 6.93536
